<mxfile host="app.diagrams.net" modified="2025-02-02T11:14:02.601Z" agent="Mozilla/5.0 (Windows NT 10.0; Win64; x64) AppleWebKit/537.36 (KHTML, like Gecko) Chrome/132.0.0.0 Safari/537.36" etag="WH4OI3rxwa_79P4ZqG9Y" version="24.4.13" type="device">
  <diagram name="페이지-1" id="iXAd-ofT4ynXPTl4UQ22">
    <mxGraphModel dx="2562" dy="459" grid="0" gridSize="10" guides="1" tooltips="1" connect="1" arrows="1" fold="1" page="0" pageScale="1" pageWidth="827" pageHeight="1169" math="0" shadow="0">
      <root>
        <mxCell id="0" />
        <mxCell id="1" parent="0" />
        <mxCell id="Xk3XCA5ldvkOTz2yZbey-15" value="" style="rounded=1;whiteSpace=wrap;html=1;arcSize=22;" vertex="1" parent="1">
          <mxGeometry x="51" y="592" width="676" height="498" as="geometry" />
        </mxCell>
        <mxCell id="Xk3XCA5ldvkOTz2yZbey-16" value="" style="rounded=1;whiteSpace=wrap;html=1;arcSize=22;" vertex="1" parent="1">
          <mxGeometry x="104" y="649" width="394" height="391" as="geometry" />
        </mxCell>
        <mxCell id="Xk3XCA5ldvkOTz2yZbey-2" value="" style="shape=image;verticalLabelPosition=bottom;labelBackgroundColor=default;verticalAlign=top;aspect=fixed;imageAspect=0;image=https://blog.kakaocdn.net/dn/cuRpSG/btrwTOtzwYU/JPyJL14YecEi52hJiX1Tzk/img.png;" vertex="1" parent="1">
          <mxGeometry x="243" y="602" width="74.89" height="80" as="geometry" />
        </mxCell>
        <mxCell id="Xk3XCA5ldvkOTz2yZbey-4" value="" style="shape=image;verticalLabelPosition=bottom;labelBackgroundColor=default;verticalAlign=top;aspect=fixed;imageAspect=0;image=https://blog.kakaocdn.net/dn/boG0d8/btqOvRgjZy1/kYNpIDKfWmg7RpY0zqqkL1/img.png;" vertex="1" parent="1">
          <mxGeometry x="605" y="864" width="115.35" height="86.5" as="geometry" />
        </mxCell>
        <mxCell id="Xk3XCA5ldvkOTz2yZbey-14" value="" style="shape=image;verticalLabelPosition=bottom;labelBackgroundColor=default;verticalAlign=top;aspect=fixed;imageAspect=0;image=https://standing-o.github.io/assets/img/for_post/20240114-1.png;" vertex="1" parent="1">
          <mxGeometry x="322" y="546" width="101.33" height="76" as="geometry" />
        </mxCell>
        <mxCell id="Xk3XCA5ldvkOTz2yZbey-17" value="" style="rounded=1;whiteSpace=wrap;html=1;arcSize=22;" vertex="1" parent="1">
          <mxGeometry x="144" y="707" width="341" height="307" as="geometry" />
        </mxCell>
        <mxCell id="Xk3XCA5ldvkOTz2yZbey-7" value="" style="shape=image;verticalLabelPosition=bottom;labelBackgroundColor=default;verticalAlign=top;aspect=fixed;imageAspect=0;image=data:image/png,iVBORw0KGgoAAAANSUhEUgAAAPMAAADQCAMAAADlEKeVAAAAk1BMVEX///8klu0Aj+zf7vsAkOza6/sile0Wk+33/P6DvfMkluvn8vwAjezg7/selO14uPKRxPSo0Pbr9P3V6fr4/P7y+P3P5foAi+yw0/cAkeiPw/RdrPDK4vqcyfVQpu8ym+5Fou+52fhbq/DA3Phts/B/u/MAj/U9ofMimuk5oetpte4PlvRHou1psPCGv/C42vabyvGi0uUTAAARm0lEQVR4nO1dCZfiqhI2iNAijfuuSWx1nPta587//3UPAmQhoLEn2532O6eXEzHhC0VRFFDV6TSHLfOyQGGDtakH1DNB35uuU9UAOc5g0HSdqgZFL87fgfN3lG1IXjqMt/N35PzXy/Z35Jzvz38/5+/Yzi/O34PztxyfEUaIYS/5Wf71nK8UAAj4L0Bh9EPZrOk6VY6pib+f8gv/WUx63Szk4DMwrnYn0WXzau+/KNs7CigVSglACMUfsFzxy6ulvCh/R5d3/LIPEkABSpom8AWMxIDjeURC/MOG/PKQj0n8f0/+Fj941PlbfICCM8p4fBRnz1NXifz53HT+FjtsBGNyCtjgrC+Ldv5rOJOsQSk5s9I5D3bVsXgOI4CsnLFJ7o85X8FtXh2PZzDKk6uG8x4iTMcVMikOJ2dkTKH+kPMAMA760YbxvK529jET+gGTFug8F+eSddgOEhYZAR7uVcqnCJycCSqTcxgrSga7lRIqgHo479bJ4IDwpFpKD1EP5y1O9RQcVEvpIWrhPKCMpW6HbxWTeoBa9PbesGTBqmJW97HJkWMOzmKOYZlXFeEcmsvWsFGLbLcEBqCcP5uXl8dOdv4s4RUwMiZQzs5S7/VUNa+7GPQMyKHk3bws29O8WshPcoCeOZH50fiAVTHO5g4r3lOabejqEeYoczVWzyBtl8syZHuWu5x5MMut+HAttq+D8oXGbr7oD6Q/O0KHmdpK+QAB5CWo/I74iXRYSNca/Kr4/ZOTnpEl1F5E+UP91IMHwMIZ/VMD5bllfW1yby5p6Fo5VlnX6HrmsE0YTT15mn+yengDnOEdztEsSBKQfyKbBOaqLmySHGc+kUg9eWflDGuwS+bQM6zJu5wlVckXIc5/HXG27q3Ic0Y49eSjlTPu18EZWTnnxpGYM4qaWn5H+bcLc063s50z8hfjX6ePMCDBxT/1V1Ws9llkG0SciekEkpy5gGYvP8OZgdST7bLN3wvEmE89kFjRxlwJ+r/L9qG4+nNuIIk5G5e/3J/tOiwPtl5+LErmnK/v/f5suIDdazcW2V6nn2wbq+xA4KPMtrZwfqzDTM7LXO8v0J87JLcb2A0Mjs1xtvZnWpBzRrbzJxruAS0PzXG2tXNRzjjD+Xfe1XAHoDzH6POybevPRWU7PT53eusnKKMSvWUuzq7x2d7OuXsUke1O8ESHLnPy4eT8zPhMc6qtwPgs1qoKU0a4RNvkyXbOX36mnTF49GwXQJlzzLnFZ2ntz9oHaPZnMa9a5oTUPj5jmn14P/cUB9ilRMp87pvz34n77+RemBTi+TPMfCR9gNSE2EMzI9HsGSeF6YfxwgtyJuuS/WRdqzNj0uv2xCf6RzlEcu4TOd39kp+E41RsiG7JAnUJmOy9QiM0guemq1oKZtM97xDFRBv/r5RHvpsb9+pDb3fYDy9cK6CCpicYlkB49kupoZz2qgViflzcGEG0jFFqQtbKw1P4wc0B/yxl6nzRfjzTdmodEAbleMcOIGrhJ0zdhoDweliSpyC/nNpCIIZBMCrN1f3BWtyXsQDEa+bvp2URlpxJW/sy6Z/P/f14V7ajc2tbGmsHWFX+/NszXqh6QatacT+1Vocx/3Htv4b26m1YnmfTQL+tso2qO7eyb2s74+q2GIyLO6HqBahuc9ihpZxxhY6BXUs5V3lSJ++NbAVYlRtci/oaa8ay0n365laKVoB9PK74H8Bv4wBNy5xG5dFGQwxX28ytNEpAxft5j+0brCrfzjto32BV/Sna1inuGvb+fbRMcaMagpmM2tWhUR3HbXbt6tAsrJ7yM1sa6gCs5XTotU0dGtaweZnjd4usEuzVQrkzbVGHBuVu2XWDtWWEJut6JJvj3BbhrjFO9+6ZnZZVos7QLZ/tEG5QmRffgvxR3yZQ7x6obhs0N7vWSbkVZgljNZ/wPjTf0CVuvC+IxjfRwPrjSTW9bEUbiNcwa9YWK2V339N44mBABZRHTVB+7khXyQANUe6sYFOkSz1c8Rz8hoyxBik3tCqLajWyc9g0oMbYZ11OAgeC2i1QHDQdJaz7o2bKYNswY45V/gRcdSDlnDP4Y5xr1GOEVLuwXhgfdQ1YDJzaEMQzQlgPaYxLPJz/x7jWMGIxMGxNI0fwqyaN4KXhQTmPU6WKDGHcbGxDO/agsukGZzxql1hrLFg1mowz3rQkunYes2EFTY0g27eWscAiBKW2NcI/Lm3sx1kcAlDanINBcGqdrrbieP3xxDFdN2FM/dVb02QKo9fH8I9oIwzBddyCqOlP4XjitL8m5Fyi2W3V9Az5a1hsQgjxUx5w0b74o9STnbVjvttvPRmm7gFZJo6ywvC8aj4ifhkY7MZnP8BRDAKGGZNh+kSkPk6UYRERARL/tD/0/jsaqxhmg+lxvO+fbh9+eAkuHFd/exr29+PjYtBqm+OFF1544YUXXnjhhRdeeOGFF76Gdi6jVIkRwZcql4GnPvus7SBNMWwpJmhZ3eLCFCDEaGXRob6CKWTMI4hV9oArEkmjYZs2FIwhQx6pMHYAEPlgEP5V1f2/gGibOvEqS9j5JlPn1JGxpjDGct2xQs5RpMEX54ahOIP3iu7fSs7wxblstJMz+oacv2M7V8xZbj1qGeeKZRtEUX2+GWevhe1ctWx/R87N9+f5dLFbTJNdPHdl+6272O0WBfc4icKL6cBwujzoz5OdfcPJvLdY9Jx7jSa7zLYcycl8sio6vgWUij0wEH3sJUtnO88Ow0CmsaWf/ujB1p/ZcXiJ8t5Ciq+b9F6/u7I9G/Lbh+Y77Y18JFP0srBvOxDdB4D+HCScZGYPCsONWc3FDQKsY+YjBoF/jDkTaHAeDKGoLBOn7UXKOHBvm+bkF3+JUWR6kcZERPpP0u/c43xEmBDCsqGXV5dlsgGP34uMzN0pI95dCIsSpU9vdMmIzhjGS/vpFzjZUl4jlA4hz0DYs3OenSkjKHPqHVHicnWM4FrQTSWlY9DTZwHd/fntRmVwuvS5wePP3NY7CH5nvyg3asGV4MRYNhkeSwnsAYomNrd1IbCX/TnLecoAvxHKlGYML62RZLsBFnlxPUYixDXdzjRne3/+F0tNgmRWM/mub1TcgmQzOCB4zbQekBf3KxA9OSodvyccV/IMRLW8/OZFxSvDeSyrmQ1uEFXccsbvCBzZFhgZSM6erZ3nWxhnp4gzHU8Cx147BFLdeiIlBxHHFlRV7ASzUp1DmvOIOjf5MWyqunE+s3VcOIroZ7e3VxSK9x9RRFDtneveyRX7I1Enk7sb6XX6xdOaIM1ZbNTL5xBKcf5NUdxyUeHMll42MOruxfKQKwzHDs4Tn/dDyZkQHCgXzQAnh+wRxsaDadzpJ+arUYVlaSg7ymbpKc4I4u3+cDyMT56xEz3u+keqlBFCEPqjFS98DpLN+ixIj4KLiLLssNDfrI7HcT/Z4x5ltrBwHkOxY1JyRmCjrr4RrmPlV7myPu1Xq/H5kjolAPU4xDlnNDFEN8FpPyQAYxBGZXbUUxm4QXCIa7zzM6f4NecJ1LnZ16ljE9NTLE84pcjmLG5jbx939d4NfMqiexvn9/RxNRzGJslWh7Vi4BYPs+/9JG0Zmls4I3pNhpNF/yS7wExLDDMOoB5Y0tRIc77qR4BzxqyZBvEHychyw4qzcSBOFkbLgYXzPiVgLHWgfyXehLgbDDOW2WSrz3npWLZp2WbYej5+o76D1qaVN7mkJEdyPmgtnD9rr5+dZG9YADU25kOp3HgHW0e3yHLuhTAJGAuviUZ8Q+LOQrxySdfirLlU2neT5LAbsx8Wn6tUtSincrkIxEfatQ4LVGe2JVbeqjcEtZEVYlnaFougtzpIUcxw7gvjRY2YDKRzJYp0nUJ32gI+jtVAolKipDgH9g3EI9VtrZF8BjDLeQcUZesxbJW9Vo8GOmji/TPbKc6LgA+ZelAAfqaJlIrG1iPvff2kqJ8nso0dsx+G783lVjDD+SST4DpyzPTU+XcVlVHFD3wQ8CuxSYa8KzBlJ2CY7Q5HdWtsb7iLauhzhjN0JNXsUvle14519TBth83UGwCOWZTKBITl8KIsxAdxKZW9jT4CPp9QjYzo1uB2gpGAuXIbL+SLk6pEyzZzJX9eyZs5k0CphpacF9FcwZ1KSAWSQ1Fu2nf5Nh8F1uXtLElHS7JRXSzKFrOomth2B4GrbJq1qKW2w1zNrJPsulquM5M3kJzVXBo6p41KxqJEvgcaWY7OJyu85fN659tnIkUbhauxHSq/VpTkSHOmLpeCCqsNHR/rhAmSs+qh5lw6gYqSGC1W76WieBTY7S1vROdf00J1KoQdUONLZOVM0tJmg2yZO3pG0pCcb49ekEqLE40BQ5m+bv3gcI2Fc34kXBU8VB+lv1F2GHZmT5UPvBOOf59qZykUd1JGqbQ48F/+/ynqgQjdp2zlTNaG3isany7iMYGR8sQb6/M4UmXtkGuxJLI9pZxb+pvJWXSrm+T8szhnPmwqG8w0kApzFsa+km3sDDcWyKe5c+Wodo7ixW6VYeAsrDJKRBtiTpjcFwqTMwjf49jPzMsMVoU5j4pwluPvnaYbKtkWdThJzktnF9WKXYjmL6nP1g/Oj2nOMsTOQYf1ydaoYJBNFJksuj87OSu1RJ01C9TtxP8jOQc0e1sCZZRAIRRjIMeqB9EpFWekPLrjeJaUNgJ0+6Ncwvg0gHSLPeQ8UqOLKyRZV7acNEOUWnZrByWCkfAvYMSZPQiva84l+1qMYXoiroef+eAOsvNnN2ed08VlWvXT5uS7erRLF6t3IlMsqaQDj/JY5HwGcSpLkHq1ygQutEttAuQdnZx1OgSHVRx/LCU0uG/V6Y+lVexL49llIyvkfUNxxMHUZFK9elYkxc1DHdbZqulzaP30Jp+lta+ys5B9eqODf1LVNbHUTuu7R9gt/rDYVUFj2ySelxaIXfuY81HdzRrWWmsU/X2d6cc6y1goDaw/1DJyf5Zh4TyPXSWJ9P0jLyDP9rbn0/RrVXPJO5w72pEF82XiIQLoe9504fyA3vvUzi/dFlodWXJrTTbb09HFufOOY9tEz/p1VdglT/oMKE0J/eN2jqfjHjQN1L2mDGNtEqd0gr7x7OPak4s5CcO5rjq+GoV34gT8cuPiLH3EAiT27oRqGoGIocfmvljIgwnpApyTPMcwSPeWrq/5pe2DOGAvRukZ5eTElSUTnBFMHDJx4EC2Tmu9+TAaulE05bKvY8QNEeuZXnwlG8P2SJgwr0ksioU4z+Lug0C4kjWeH7Y0nqHR9HQwTsaHIFFL1LPdaRm7lDP5hrax4xSivbrL4hcE0mO/dq1jdIRfT79brTpiqfMw1OvIk1Wo1s6SHlWkP4tXGLtXGQQ4/LgSihFjakEs6yKYJwt5CK9x6PsBFGuairNR92RRDWEAeeGfAKo1CpdPXyEOnRpL7S0xuiG/13brIwriCUqyxlqknYXuTi1ZRGSFoCpupo9zkFnLQuLNJGus0BhA54QZhUVppDxl0zucOydNMQ5BnQkVLKrpEenmRxlTtRhnrlNyS3kIZQyMNGnLkq36Tt7hPglytyZav0ejo3sfoKb4GWcv9x0rosjDJBmtTDvsuBlZfb5dzx4Si9nOScwdARCRueAvMNs6Cqvmu7P38aLebfLaXfHKoJ+a6hn9ebU/Lm5Ws2h2Ugtn2Xr5dq/4huZfEYKB3ZG4pxa5gETrHNUqlnnLXAlEKq/1AVvahmQDsCtbSH9rO9jcui4fsRn+jAHiDADd3dLskj+D7ozbgxvNrmcjmDKAPqKPrEblQPaL9LgxPwPjXphujRFbDuVq9Ypz7p9cnMXGoSUQoYLEMRiuZbd3Q173zryILMzwevnP6t706f0XSQpD8M/vVOGBWLABdkfNlBNkNGsVT0ZkuZYBjXg1KT7nHKvTNeZ31Np0tZkvTAMqg8X4vA2D8GO43z0OBtQb93nhiz/cHx4H0+mtNrdrEPin0cHoXJNz4Luc4N1T4Oe96d1VfxsQL/DPY2t3GgzT39r9GmWe+H9WJyQrhwXz+QAAAABJRU5ErkJggg==;" vertex="1" parent="1">
          <mxGeometry x="247.79" y="686" width="70.1" height="60" as="geometry" />
        </mxCell>
        <mxCell id="Xk3XCA5ldvkOTz2yZbey-8" value="" style="shape=image;verticalLabelPosition=bottom;labelBackgroundColor=default;verticalAlign=top;aspect=fixed;imageAspect=0;image=https://blog.kakaocdn.net/dn/k9XzT/btqCMnyJfA4/BOB5x2OnIXDpGPCepCS141/img.png;clipPath=inset(0% 26% 4.34% 23.33%);" vertex="1" parent="1">
          <mxGeometry x="389.35" y="741.76" width="63.59" height="69.24" as="geometry" />
        </mxCell>
        <mxCell id="Xk3XCA5ldvkOTz2yZbey-21" value="" style="rounded=1;whiteSpace=wrap;html=1;arcSize=22;" vertex="1" parent="1">
          <mxGeometry x="516" y="649.35" width="179" height="166.65" as="geometry" />
        </mxCell>
        <mxCell id="Xk3XCA5ldvkOTz2yZbey-3" value="" style="shape=image;verticalLabelPosition=bottom;labelBackgroundColor=default;verticalAlign=top;aspect=fixed;imageAspect=0;image=https://velog.velcdn.com/images%2Fhanif%2Fpost%2F590197d3-9fc8-4584-8828-0d3fdfed0ca0%2Fimage.png;clipPath=inset(0.53% 16.67% 3.72% 15%);" vertex="1" parent="1">
          <mxGeometry x="561.59" y="609.24" width="87.42" height="76.76" as="geometry" />
        </mxCell>
        <mxCell id="Xk3XCA5ldvkOTz2yZbey-23" value="" style="shape=image;verticalLabelPosition=bottom;labelBackgroundColor=default;verticalAlign=top;aspect=fixed;imageAspect=0;image=https://velog.velcdn.com/images/leo3179/post/49f60233-840e-435d-a175-2d63d725c403/image.png;" vertex="1" parent="1">
          <mxGeometry x="578" y="702.35" width="76" height="76" as="geometry" />
        </mxCell>
        <mxCell id="Xk3XCA5ldvkOTz2yZbey-19" value="" style="shape=image;verticalLabelPosition=bottom;labelBackgroundColor=default;verticalAlign=top;aspect=fixed;imageAspect=0;image=https://blog.kakaocdn.net/dn/niaU7/btscRr51sAP/904YrckJPDWfiHgh0V1bX0/img.png;clipPath=inset(5.31% 8.33% 5.31% 8.33%);" vertex="1" parent="1">
          <mxGeometry x="377.04" y="891.99" width="101.5" height="82.01" as="geometry" />
        </mxCell>
        <mxCell id="Xk3XCA5ldvkOTz2yZbey-28" value="" style="shape=image;verticalLabelPosition=bottom;labelBackgroundColor=default;verticalAlign=top;aspect=fixed;imageAspect=0;image=https://blog.desdelinux.net/wp-content/uploads/2021/03/github-vs-gitlab.jpg;clipPath=inset(20.41% 61% 23.37% 7%);" vertex="1" parent="1">
          <mxGeometry x="363" y="1161" width="103.07" height="102" as="geometry" />
        </mxCell>
        <mxCell id="Xk3XCA5ldvkOTz2yZbey-29" value="" style="rounded=1;whiteSpace=wrap;html=1;arcSize=22;" vertex="1" parent="1">
          <mxGeometry x="-495" y="601" width="336" height="293" as="geometry" />
        </mxCell>
        <mxCell id="Xk3XCA5ldvkOTz2yZbey-20" value="" style="shape=image;verticalLabelPosition=bottom;labelBackgroundColor=default;verticalAlign=top;aspect=fixed;imageAspect=0;image=https://images.velog.io/images/ecvheo1/post/2047d529-929b-4727-81dd-3c41662e358b/Server.png;clipPath=inset(24.4% 26% 25.43% 25.67%);" vertex="1" parent="1">
          <mxGeometry x="-383.9" y="531.88" width="102.82" height="104.24" as="geometry" />
        </mxCell>
        <mxCell id="Xk3XCA5ldvkOTz2yZbey-11" value="" style="shape=image;verticalLabelPosition=bottom;labelBackgroundColor=default;verticalAlign=top;aspect=fixed;imageAspect=0;image=https://reffect.co.jp/wp-content/uploads/2024/11/ollama-1024x550.png;clipPath=inset(0.93% 33.33% 18.94% 33.33%);" vertex="1" parent="1">
          <mxGeometry x="-375.01" y="682" width="85.03" height="109.69" as="geometry" />
        </mxCell>
        <mxCell id="Xk3XCA5ldvkOTz2yZbey-30" value="" style="shape=image;verticalLabelPosition=bottom;labelBackgroundColor=default;verticalAlign=top;aspect=fixed;imageAspect=0;image=https://velog.velcdn.com/images/alsdl0629/post/90c4fb59-9cc1-4429-999d-23b414b6cf3c/image.png;" vertex="1" parent="1">
          <mxGeometry x="389.35" y="822.1200000000001" width="63.64" height="63.75" as="geometry" />
        </mxCell>
        <mxCell id="Xk3XCA5ldvkOTz2yZbey-31" value="&lt;font style=&quot;font-size: 18px;&quot;&gt;&lt;b&gt;Local 환경&lt;/b&gt;&lt;/font&gt;" style="text;html=1;align=center;verticalAlign=middle;whiteSpace=wrap;rounded=0;" vertex="1" parent="1">
          <mxGeometry x="-395.5" y="639" width="137" height="30" as="geometry" />
        </mxCell>
        <mxCell id="Xk3XCA5ldvkOTz2yZbey-33" value="&lt;font style=&quot;font-size: 14px;&quot;&gt;RESTful API를 통해 통신&lt;/font&gt;" style="text;html=1;align=center;verticalAlign=middle;whiteSpace=wrap;rounded=0;" vertex="1" parent="1">
          <mxGeometry x="-156" y="804" width="207" height="30" as="geometry" />
        </mxCell>
        <mxCell id="Xk3XCA5ldvkOTz2yZbey-34" value="" style="endArrow=classic;html=1;rounded=0;entryX=0.443;entryY=-0.018;entryDx=0;entryDy=0;entryPerimeter=0;" edge="1" parent="1">
          <mxGeometry width="50" height="50" relative="1" as="geometry">
            <mxPoint x="414" y="981" as="sourcePoint" />
            <mxPoint x="416.6807199999999" y="1158.85396" as="targetPoint" />
          </mxGeometry>
        </mxCell>
        <mxCell id="Xk3XCA5ldvkOTz2yZbey-36" value="" style="endArrow=classic;html=1;rounded=0;entryX=0.5;entryY=1;entryDx=0;entryDy=0;exitX=1;exitY=0.5;exitDx=0;exitDy=0;" edge="1" parent="1" source="Xk3XCA5ldvkOTz2yZbey-28" target="Xk3XCA5ldvkOTz2yZbey-4">
          <mxGeometry width="50" height="50" relative="1" as="geometry">
            <mxPoint x="465" y="1235" as="sourcePoint" />
            <mxPoint x="761" y="975" as="targetPoint" />
            <Array as="points">
              <mxPoint x="670" y="1212" />
            </Array>
          </mxGeometry>
        </mxCell>
        <mxCell id="Xk3XCA5ldvkOTz2yZbey-42" value="" style="rounded=1;whiteSpace=wrap;html=1;arcSize=22;" vertex="1" parent="1">
          <mxGeometry x="163.04" y="775.69" width="214" height="184" as="geometry" />
        </mxCell>
        <mxCell id="Xk3XCA5ldvkOTz2yZbey-41" value="" style="shape=image;verticalLabelPosition=bottom;labelBackgroundColor=default;verticalAlign=top;aspect=fixed;imageAspect=0;image=data:image/png,iVBORw0KGgoAAAANSUhEUgAAAYUAAACBCAMAAAAYG1bYAAABI1BMVEX///8JLiBcXFxjY2NgYGAAAAAAIQ4AKRrz8/MADQCGj4sAJhYAGQAAGgAADwAAFwA3c6ZaaWLW1tYAFAD5+fk3TUTl5eXd4N43cKFpamm+xMGFhYXLy8uyubbL0M4ALB3/1kWwsLCPj4+ampqioqL/2Ej/0D//3k43erIACAA2bJpWVlYAHgb/41Tl6/Ls7Oz//uqgqKRPYFkkQDRxcXFlc23/yDaBjIdIWlIYNyr/1XJ6oMdrlb8od7Qnb6fD0N9zf3mvwdb/6YrW3+3/9br/wyL/zFL/2oWnrqsuQzlhbWiNrc5Lf65pj7RJeqdXi7yDpsr/3lv/6qf/5ZX/4W4jX4//67r///P/637/6mr/753/8NBDcp2es8v/ykr/3XT/68Hp5+7yAAAQYklEQVR4nO2dC3vaNhfHjfEVB2jAQDEXl0u70HghEAikbRLSri1pu962te/ebnv3/T/FK/kiySCBAafGfvp/9jxrbCGj87OOzpFkw3EJ00xLxU9RGy103cpRm3QLRW200NWL2qLbKGqjha2yGrVFt1HUVgtbRj5qi26jqK0WtjpW1BbdRlFbLWyN4xgiJY7CrRm1RbdR1FYLW2LUBt1KUVstZFVyURt0K0VttpAVzxApaRTiGSIljUI8Q6SkUbiIZYiUNArxDJESRiGmIVLCKMQ0REoYhZiGSAmj8CaeIVLCKMQ0REoWBT2WSzyphFGIa4iULAqNg6jNuaWiNlyo6khRm3NLRW24UBXXEClZFOIaIiWKQmxDpERRiG2IlCgKsQ2REkUhE9cQKVEUYhsiJYpCbEOkJFHQY7ld21bUpgtR8Q2RkkQhviFSkijQQyTTyrqyx25Z9bRPz/xEbboQdUgNkbLoPKQklzjdEaN4NIrQamGLHiIdoPMuBU8/KNyFdPpepB8UvqsK9BDpB4XvqkaW2sAfFL6rGLNIPyisVF8Ptz6GVX9QYEtp1KpKuFXK9FmkWFNQrm/ePn0G9PTtzYuQ71qgwrEQMgVGiBRnCi+eHl1eXh5BXQG9uwnVYEAFPh0yhUKR3kA/BfO26Wm6R8kztUUvIAMHwtHRPaCrv0O12F1QYIRICxRSZtHTHkGgU3h2eXR98vYSQQAYrsOxlefbdqPQLxTKZVBZnzjGWmg7WFtiD0RrpHJ0CV3QB8Tg3r37v25tMiy90Gm7/9yNglKuK90yV28Rx4ZLbl7WgOSgFJzSjHUi2Tm7xpawlEytQtYkII25CkVr5MnRJbz1P2AI9+6/39pkWK1jvub+c0ePpBc4ow7/w/I3UcuqudLh4eHwQkQlHI+U94RtqlnFXrY0BMWnVu/AR1OWskW1p9knD0tWL08nCWpQe9LtdDicTi/yPbWYJUwuFcWzN5PJZHYo97J0krQ2nhwdfTjRb65wT7h//6/tTYbU4oUQKRQKFYKCQi60Sb3DRtkrioo4o7PhyR2d5bw6HBTQd1GMYc+1n2zlcqXJvEn4PcWY5ZceVNGKxcMBWYrrNxuZQ7frSOqsib5DvzHt0UIzWhtPnOCIhLCHFJSuTlAgQiS5N6FWTYtUTXHaWIzDCynbfjKAQ6um0/P1Oqk3rtOKcRzELPcyC9VXppRgjvbxExAgXTnyIOwZhWXhEMkq9elFKBTMVJlSUDGhnXO0U1AVCWOQxRnjalxBBd3korJ8Yr6c2dA+r9wgeRAe7zsFNPTmx6uKLFI4o5ZswunZHMWAjvD7yKQzZiEYLmgl6pnmEoaFAvqJTy88CIDCKRS1VqXQ6rbb3Qa+K5Q60UsrlQo0eKXcFdI18Ae8xzwK/Uq9XvDhKLc6oK66H1G/Tju60GanJ8yYRYJT4M7MVRS4gdvxsofMIlxFTMmM2jljEYPv7MlHJ127QvIgAArPfwL69Mvy5TrVYyieT3uRY6t6jINIBZyGTKrHQjotgIIwWoUUdK5eS8PPVXHhfpvneXCIPAaKCc4F+KrBarQbksj0u8/WBhQm0koKnNPxLGa34+x3QYgsZ2XXz6JwfeTly76BGULwKDx88Nlfn94Fxhl1G0arxqf5jnOwLfDYiPoozUMK7doona7WajV4ClKo146P06NRWkCf4wpVga92Wq2aIPBt98av1PjjUdcwGm1AkSdTBEJeiNRjNnwjCnNrNYUZtKI2ZRfgymLKGrBPSyaLwsnRIoN7HgNEAWDweSW9Bnx9wQkDWgBDw/4XlcLiuAD6Ra0OjFauAQzOPV5OC3zXNn4d4HAyvJYgVA3nAoUqwEC3jRsiSRnimDKfjMcZ3HuYFBRjMjVVUdQa3jn49DpBoTmYgZqIiMmOBYqkf+w3MjPcNYzKTEtZxOnGuDTNEOUHFovC00tWR0AUHj58+OA3svVlPi2gWKIjuENuMAqee1FAdxjZJUEX6LoFKoJ734NjqK46z+oMc8dTi0RDMyJInTTJn7VRKDSGIBezM14ZlW0WSQqGaNk14Xsbnidv9cpQPJCIS/VUzXdHTFWQVFt5zFXpMSgoTG+EKEAIDz6RrS8LBIWyZ7lgFNDnGsC40JMYZODUBX/AgzWyLsCrw9HkhEjaG3xk6L6MYeXMtnk2yOZxGoUgLlBwqxJR6A+3AebxteaiXYeKzsPtID1s87Fz58tE7/BPuODj15crIDz+lfv9oQ3hwSPSJfkowPvWvqkDUcAGBx3KdjREVwBdXHD8m49CR2BQcBp1gFwKN/Byo9XrC6bnGUxNsvJrKBSb6BurKWmCavIizxyicCaDVASdr3ghURZ3H79Lwg25uVwB4Y+bUw/Coy9E6/0UQCiahvfvhhQUx93DrkQEuIBJm1ug0GVRcEIkFY/Nljf8BVnl0Q568mFmbiDPT6eAIQMKGAmXMhf7SklOaXiUQLmMeYGONX0ZNG6IMywwIHzknnsQHpFRkp8CHJ9hS7ajUOd9Yy9ACoLZYBRcN1vEjUTbYtZSkPP5WWMhtKJTyJIUesjk6Fr40FAmh40SmsLD45b/TdT4ys98EK5sBn/YevzXDff5gQfh0Wvi6/opQDvaQelWFAxyrIDBkd2xAlFw7iz5Fh3AHX4dhYOLBrek9RQIh4NeRNNDLZrKRGEOvy6oiHqbf5s/vrJvOeHj9QusE+7rbxjCoyfE112mAE22HYXGAgUn/ApEwQmRZBzA47WENRREalC/noI2RIVn3rVwsgKGqTwOkXGmjA/qDI/0ATN494I7/QXr8/OfCAjn349C4L7g5KIytkxQCr0mR1MACtjtozcmMijoNAocg8KzK4/C+5PT//xs6ycnU0MDcwAK8DpbjwvCluOCs1ZA9IVOMI9UpHgjqAAUZqgw6gvq2r6Ah3SWR/roUbi6/vrnz548DBjCOZm2LY/O248LFX+M1Bbs0oEoOCGSiceFBvLFqyjI5ByEXjEGnpECUMATeWgMUpElQN3EuIA3k6sVXAOdws2V54+4//og+HvC+Ut2pNpx/2qTgX9gCqAg8TGQofHwryAUvEw0h4+g+28VBSK/mJfUXB4NEuspEACb6pKNgZMiYiT8klcVf4jhkV5cuSHqW+7P5Y6AIJyfM7M23ZuKaDuhPjoajAL0QSOyZjeVW0/BaxK+Gbmx5yZWUUBBjX5hL0NbwSmYRB584Uai+BMzjcwXGp7FiWOsrE1/5+YJf5+uhEAOCzYF5A3RNE9XIGwcnIIvbes6DikQhbm1aCZOkbT1FFDf6TiPxG1AgZy9bYrmAgUQLZgm/n7eTgARTwiyZjC4t85qwmOPAh2CzyHZFDwj9WFXcGZEeWK+p572bFu3FxVsUSlwXd6tABRIu0N1EAredD3hrLl+SZVkWdZ66MgSBWwod4DdhAJBnDOKeXu6j6RA+CeAye4tPTy/t/DiFKItJ27C7FJgQHjla38ZzvmPDHBf6PWR4GTO0HSgV7ThhHe/Dv7pUVCqCBmdgj1PbnsVOLPtBBlBKKDNjuScKtecTG9vp/6JBMKdAwqa9+8GNJMp5zagQCQM4IvPZ4eLk+jERBNXOBOL6gGRmrBntrlrkDGDfNmh4EJADM5tvTz/5ms/pFDjj4VRrcoLguD5EwXYXuBHtVH6+LhaRX6mzgt8rQVJFXhit3AfLRsobR5w6LRH4H9um/wUeCoFtGYizShnSdMQKQXwSHgqel6yiqnSOHiM5JszpV6KmNyDn2j6isvMVR7QG96+e//+L5uCC+HTp0+vXP0D9Oq1H4IzOhfaabgcKdTwhfRW1V66rLYNBcStHp0CXOK0VzzT1RGmAEB5HzVG9upmuuMNtO10mqCQTlMo9HHsLVI3r2DTEHPfcFxgGTIIBV9nWJDtIlfcEpmFTU20MqcIwu/sC7lfxxmd+4VGq+7fOaIX6vVCGd4O4G7GtoFbTOFZRSGch++Pct23IQCcw/eUTv6BRER9psbeIGBTmKE/pzJ7TTIIhVRuzryUM1CJ9MQc3IMrV/9dnaIx4eH/bD0BotfnzxfoAhTWFdlNc+LOklPMlWfbWeMBsiSDkYBRNBAFtpVdCmaR3u6ytbhhlVbqFA/MeEigXy4ABX0kCCvW5EOQb0eDnGft04AUiLsf/pqVxNhFEYxCqseYAPF+0tXM0hxkwVrarEqr49Q/a/HP61fn5//QLxeAggLi1/AfBiLlfx7EzE3p9yikQCCyh3TGHrKAFFLqmO4AvWzZFDNL5zLi8tZtWh2nfgin3NdXO/QFEBi1V5fYVYsbP+XcRabpB19uDmZwqxexRcjxzZI0WOyoerkJgeEdkk2PAkLY98J9TRwb6JmMGeKGczLLnJPfRB/ItNfi01r1lZw6OoeLOl9ebt8XagLP2E4bkvrL70UypaJ4MZxNMpnMZPZmaopq3oIJLLHk6N3OpiVejDOD+Xw+GGQm4+ltXlSL9h57U3aF7l18BN/OWl48G85mb0q5HEZM/LwxqH84MCr9fr9iDKbi0pDApGAv9KM8AaZpT16+phZcTwFkAGja4o7UXOwLbvPtJzfgwxvYjMTgTPxgBlz5z2azlgXLEvajVks5ZbqPmOC5Ov/TXZqVz6mqmssvDwirKHx7QCbMT768fnlO36G6hoJehmnD6G7HZl+ItEaEQwr/+So8O7LxW8voDfv26RGetDh/+fLVN3o5/64wv/qd2gjmct2Qn2te0iywPbPEpEL4v4mO97mwnjdlitGyr19+RwhAZ2BaQOmkjxkUFJA6C6PW3aYKUIEfmdXwKhDcR7qjrIW9prKEKt+gdzpiN+7038+vnzx5/fnfryttoNRZDscwmKdCVdDX5UlnRLSyuGt6Y1mDTD5PPEwnEXOoy086rtH3MNPdqh/s7dqmSKYGys5dASYPjbEFgi+gbLFHZA7Kxi+z/P5WC1v1QE44f+FLqXd//YKbwpWNAdDcl55sPvAzmqYv6o5MGIIGQZywnwE33/2ln1nW7AWnbP7qe1o1ruEVpL0mEShE0sbkJPbSE01biE1hunk/W64EE+i7wiTuwIg7qxQoRNLEIZpdGoTxa59MCpMtXuu6VAmCAO1fBvI47CuGoD8aqfVKtltShptG81SxKEy2cXZLtSx3hf2GQJlFYknO3Tb0jBrOe5HoFPThVr8kSqtpYVTAI8MdG3QrBQuRXMkHubB+6ZO6TjfIb4eY3rSlEGlPEXABQ6S7UPas41vH0JuzHH3GdL2iMl5oCj6LFLZkqyjeupPimfGtWNz+m0RtxJ0VLES6K8maBDJny5LWvjxppaI24s6K7+v+CUVtxF21QYi0x4rairuqHtPfmPcraivuqshCpFAVtRV31WyP3k27vaK24q6KNkQKS1FbcVclYliIO4VybH/G1qeozbijjB99YQ+UjBAp7hSSESLFnUIyQqS4U0jG4BxzCgkJkWJOISEhUswpJCREijmFhIRIMacQ/vb3aBS1HXdTGNu79kFR23EnJSVEijeFpIRI8aaQlBAp3hTGCQmR4k0hKSFSvCkkYhcMVNSG3EWJCZFiTSExIVKsKXSSEiLFmkJiQqRYU7jd8mmB/VPUltxFuz8uuy+K2pI7qJKYECn1f9JuSQXA7gxIAAAAAElFTkSuQmCC;" vertex="1" parent="1">
          <mxGeometry x="-405" y="805.11" width="168.87" height="56" as="geometry" />
        </mxCell>
        <mxCell id="Xk3XCA5ldvkOTz2yZbey-43" value="" style="shape=image;verticalLabelPosition=bottom;labelBackgroundColor=default;verticalAlign=top;aspect=fixed;imageAspect=0;image=data:image/png,iVBORw0KGgoAAAANSUhEUgAAATYAAACjCAMAAAA3vsLfAAAAe1BMVEX///9tsz9rsjxpsTlkrzBosTf+//1kry+Fv2Da6tDJ4rv6/PhttDzq8+STxXV9u1SgzYW+3KyLwmmp0ZFxtUZ8ulb2+vP3+/Tw9+vm8t+22KLd7dR2uEuayX252abL472u05eQxHDT58ekzotfrSXC3bKHwGRcrB7M4sGH7zXlAAATy0lEQVR4nO1daZequhKVkIC0ihMqCCrS6vP//8LHkMpEBezTDqvvYn+4654GIWwqlZpSjEYDBgwYMGDAgAEDBgwYMGDAgAEDBgwYMOAl+FptDumnB/HX4IW+Sxhdfnocfwx73ylB6CBvP4GXkYo2h31/eiR/CpNLzZrjhp8eyZ+CN+XSdvj0SP4WDqymzT99eiB/C3HECCH04H16IH8M8SGK5vvJp4fx97CLB1EbMGDAgCdjlwQ/QBq/YgyTeLZ9xXXt8GYl9IXY2z3+6/vBYT8CWV0ffML0eNhEUbQ5r6+JNsAkjKJDAv/anhZzh5RW/y0vTIPCO26i8ZKvmPEyzKINNzom+TxagbE7KU8T/xjNrotxFkXjw9Hi6HtBPi7vWN7zthfDiBeRs7k+9mSnOXMbN+VxuDR6wF6aXOcudauxEbfkev4tH6GYlqYqY0Ez2jyjrCLNqc6bH7VX4oVUGLXbb6e+Hj1XN5/MyyOuv2/uda7/sa7/kZ7La8N9x3dsZBvW3LG6pbtqBjbLqh/xa3Rjd6A/5cxp4jW3pOfSwUa/dPko41ND9m7j1n9xqn/cy9FqV86+lKssaeNCLUuuIziRViKR8yM190e/+UdRcrJmTHvF4cwYWWGMzGXr6q2Ezc/4y+xCPKb/Qlp9r6j78kvmtn9DxzXZafOQzqW8xJ6Z742whRS4VXMV91YSKE6s3HcvUgJH3q05jS1G8dl8JDbX3rCXt0dGb9vRjpNN8z7WdmNmXuBxuFGXvF1xKXadaj05cdro12iNvTe2glXHmzeXIePCV65yriIg/P+rwNGEn+ae41X7kdy5sohNFugd57uY/7CkvgfomB+GO7a7NgkRrBGiEkiP5dEvfl96WuIjYLetTpuTbZSrVBKG0kZWB0wQmBKTQ1mr7hhzGeylLf2FrFWoKcDB9USl0KIsYlSsOvWcAtrcA3/2SndrKxM8qKDNUQ6SSv2gtFXi3JyiyzotYGB7hbX6rnBbdoj4rXto885t7fMjEMdmh8ALIVGexvEsvYYZbW6mSRt/SOZuDuv9YuUoE5u/Ekmb+qzV6mmhrT6FTaOoNKrk30rV2CBgylnOar3fr898SQIy+mg7/WqK1newxfHzZnQkEotYfLqV77UcaqzS1gx/kTYLbLyMxFOR6QyjrbzAbV3bC1baCNsc09KQDdaOFAvW6OHJWPzJJXs+uHiZqdOuh7bd5p9MDw2+ZVXgcky1yGtwJuRWD1Wljc2VFXkrVVMT7DZoY9kSXoSNNjIF27hcVOXVGuG9ihuzcazeVh1QN23HXwtbOeYVeunJuHkKarhhW+67KLRpwx8Ja6w6MmvR5q+lkW2jzVXtIlCxMEvFacwY+F6u0920zZzfC1tpeRXYtUGQqUUYJW0kM73ABTwpy03aLqrwWmjztXTzlmcFy/tUIlgIFuemEfAtX1cnbYtfLqMwnC7abMk4SdulRaxgoL60SpvGmoU296bzIaaUG6vPzNrvMxOC2EXbb40PgI8VE3jctnfoGY2WCNqwNUUcrGRVoY3pziJOGzU88Zn49UyhBrttANO0k7bVL40PAJliRsi3mA3TNTJRBTO+6S5WFMBSVfoQqt1myDVOGzMu6I3hQDmMGTzzFFMe4hIdtJ36hY0wSh8QSYZFDApF57Px0Rwl0EbG2NjWTF5Z0sa+9LNwLyEzAzMHsP0TOSr8tvt+52rXsiJbcJ316WvxQHwE0/ueKswuI0pQS6WN7bHBwdNVy7SgjUQGIThtt5aqBzISaX6gb1qorQ7a9r1i5G5qcU/711uG6f10aoRmyE0JbQJtProOJ+BxzRXaWuoId+VXJm1rhTb4f2oIboN+nzSO+oWIi8fJ7z0TffjCjM64dH4EgRG0obHXmGtuMlVpM2sW/oE2kDyKh7y4hNhp6zc+XFGQkvVP5zEW6Q3m5gQndBPotF2QFUHS5lB1kpqq4B9oC0Ge8Eh51EPbA8YHE8GNsH/JxSsat3lkEudy+0BIG2oOx/M2bSQyLZnnS1sfbRbjgzA5sSQTgjbCWCsQy49keC5rtt8YPyGNySpoQ8c/i2BZVGibm97Eb3Qbkl4ol0l+QRttlsgH2+T7EGJebdrceX5dZ7icUlvaYhKsN4QqgTRSG1YiTImmiUTUafxk2o7w/zl226R7JfVQbUVo7SYHPL7Xos2t7f1tiFOO2o/8dsly5UiZM8KU2C8g4luN/6m03eG2Z+y2X920oZEPwviL509k0iYiZznKG2qESMyWcyCuDm0KL2GKLSYg31Wk8qm0gTy1FWWFVacBssUsCuKCEcFHY9Imr7VHLRKKWmAKljBTK6NDOlfILBWhmUpzP5W2CdhdDFnDZhcQAZS2b0w9Kbq5mcIt2nJxAsobboSoCECffSm0tWz/kWIdTXdPpk3IcdsHE5FVC20JkKqxJm1Ji7SpISB0nvZvq+DeYbUMyMBRe4wyJlZpoOfSJhbD9m2vvn1II9z48BXX8IrrNmeqmIhYUk0zQnb7w6JlW/AH0KStvLeR/UqEA1PP++fStpMXN95y0R3dLZAZpupzeB8t2kgmeZtsEO4V/zjeUJfRg+EC8FlQ6QM1l+Dn6kmpeLDKI302bcpE8bUogpoMR2ibIJEPNW0nsohtu41MpQOMuhnSCGkGx5xvlTiIa7DYyFyxmxDMrVLZ0KRvnkxbLI0vuhJykISqO4PQhhkfimLLhSyiXoIUbEy9SfXHCzIIc8ITZ2675OtjHbXWaHNcttqnSZKcFjLf57DGtnoybUrqqr5tkabBfkU0KWjThkU+lOSTQgZCW2kRC3nbYvE6BkaI1J8ujcaHPF+HoqqoNjlkepk/beWDuVRxxMBOfDZtml52m3I9cIPgMVouD2Z8yODNUtF7GG1NEcHIfGvy8MZrX4jodQpkPlFoY2tLBIvAK3g6bVtbtRDLwagzY6eYSpKORqrWTaC0lTIAahAyofqd+Y8m3xafHwxEWToTTLEziYiAP5220WyD8uYvQfmajrIXIj8QQZTdWF0ecdqUfWFYqZBcXE4bNJpOfD1wVI6wcNqrMotkiILnY8jGoENsVav9WlmoZaVNllWc22Mj5fOK8Lnh8NyxJ53DUX21sNAm3Qk0QCzVwvYItTLKvVjEVx81ApKOjacg9KwEBrjPgOzjuym1OKCy2iV9/FZNernBZD/V5YewrFDisXpYQhcneFCgJ9bjIjbaXJH0QSPESgJve71NldqrUsWRBVjEWuBoso9knI8wNr+qEpOQ6pjbCu5WJmh1cdaY2UH9D9dphYubykeip3OTw5SBSqrKeb5jmSclG10doJEPIbt7/aiNNilud9Q11UIyyTHMqrRhCTdaHeUjGfG2+Dh2+GnZ4W64i0VGfTrHIgVXUh7ZQM4jqk5Dot2zVXldkht/TXJ+S+aMm8ojyM4auR50VgmVYZYfWWkTIbItugheDJ9qkqTF/X4vEi0J3Q5TxsHXcrksUmRfwK64B3icIC7uqZDMbXkaXt2Z3gv5xnYJ/H9cjayATRbC+DIi5mjkQyijwDhqpc3x+ZN5aJJB6soudEd3X4nl9OKfEZnMIcJB9FAOnnYRUXWTVDttwubFc61oTYiJj9F2vZRTxPVvJ118k5XQOEYEEE+7gKb1TDPMTpvwPbCF2VYTYuBjtIGd4vvnaxrX3O2S6+oi3Ro9rY+nXUjEZ1xL8dlpE+owwc1tPL+h41O07aS54JbLQZSVmFKq+kH6FgYs1KNQ0JrCdtocEKftFKWtVfSD4GPSptNQ7y/S/uDrZQ6mxgfKwY0vTGHsoA1ss50lX99Rdg/4GG0nv6vGgJjjsZTKCGui5Zl30cbleGIpmW47OC2AzUff3oyi9PqsVQY0Mq1Dyw4EESL7EW3csJncbDn63s1/oBbbJagvx+R0RosLCJ2uW2lALF7hdEmbjJ60GO+jzWH9a2lT0G6Wa78HXukhTP1qkwQwRsr1YZMjKtmihoS0fZm0iQjMpDW9QUSwAHvDaz9t8blybFYv2Qb9ACbJ1/dqHk2rIOXUyarduui2ZcsTimrMoGWfQJZ+3aINNhtsbSVcD9A2mhT7ffHRJh5ePKu3uqez2LrT+2apMYIy4qR9yF1uR962vQdQZIRjiwFCnP9MIxhLHSBxQHIQcaRZGGZtK1ns+kotu2hIb4L+z+BqC6CDV4v55cTFNtELL6ClD+GE/04fOttOIdBgP9iAJQJuba3HT+irovlDsMxSYYG0lZsFhPBfTGz6cvNRTf9cxLi4yRD7o1tyxRyNLcKGb177q9jjs1Aot5ZXasEFbC0sU+rYKhX/LCwepNDf3mObsOT5FvEER9+7huH+U+bsE2GJuIkyUEuQxDhdOE4JzhpE2Xc333Upsv/w+UjyQ/663rsW8ZCxkke6W8iQMZqaKGnlFnejE1x0t+lzcaRVVRi6eespSPFIpXgyNI9qyJJI8s7w4g0InEAXmNeHONI6OU1eaPXgAiIFKOnbicVk5hU32kTeCpLVr+/uyh/qhSsRLiHEEVwE3dv52EbEViwb/0S9+Iz7q6+PQ0It3QvVAe4KKM5QEHXMUzYWrFmWXfnK30cblNZEr7uFpfOHohcSa4ctQkNpThwtPofQZP8p2mxGiFLkvfvGY+2M7KXPlJJuG/C/RpvFhWIrJdRTjNvEMRYqS2KMxydV9v9jtKX4XmS6UN3v+43oFVZOqJqTNkOFKYk+nTZvVtzvgd1l2Kan4l50dWz24vKEU4qEjd9Cm8UIcXy9OrrelFdXTtGSs6uWnJggfeUquBtFZFXaggO7+CUuWY5ZccE6qw/7FxZeUeYm15DxU7K17g9sA5D8KCha3UCfB1vcwjeryr0kOH193QMzn7PDS1+NzWqCtmIXXuAHhF0O5pPd5xeZfnN91k5NT3Kl2qC8hNzFMPIO/5Pp4pLV/+W/YKYblkiIQ1cP9YSdIaW2zSNr9ibQ5n5r7TVLJalNVS+8GAWofmZIZBoZA3YvC+D+YD7L5WWq1LO5Aizr7wA6+rIWA7ja4wJtLZKJWiESz9uSS/R43RW5IQVn5X+tQbzuSx1o8Wg9YJr3KIftwdrdwtgDMbNktTQVOEHnO1E30Bfoa2I8yfNO2kZ2j53Nu4R8snSssSWzyYBGW931R+51EsEKuSHFpUpfIGVvcSyKyOtriIHzGrvWDvTLC0txEntDFMLGJ4sZsL1urHs02vsMVdpYtP465aI5AZlyVoTYE3o+npbfoupdbnoSPhxzvq+n/VnIXrP+bG8XWZxPKbagPBFoj1UOl82PSYu5XZpnHaQ57thIbCu00ab3sOxjCM06wdMjvNBHtkSEL36lYh82d+wK2DMDdf7pSRggp2v62vxs3NlDnFDnti5mW86dt01O3xu3izRkp7ykTYToJuCh8PSz2Nkq0hkeqA8QN9FLQ3gxonxR1HO/x9yt0dcYymW+s1mFi/V6Ed7mU9rNGdaXQdCmhKVmwJNfiw6kIJWiVdiQzrUbfABMXaVz+BW8jTfSNunvW1Sl5Jtevv2nIj2DBG1qaSUITx27FGNQ236KM2rpBXlU18cYhgc0vZG2R5re/QBIzxlBm9r8SbRPy6vnB05UMxkiNE11HYQHtb5hsEpAjfs7aXtai8VmxG0nHWireokJQByhDjCBKGm7N2EeN3V30OiPqg4ezFJQp2+lLXgibVgrC0HbTfkj6Kpa418xURoBbXWZpYh3q68FdkP4fCPKW2l7UvvYesCtFrYjxSdVp6B3Uf4IM1BPOcEuu7o3vtiBq3rLsBEPXtZ7abMk7P4BaKpN0KZ6O4K26o+wmvtaUzCxObGyOLIu2mByv5c2ayTkp8DbYwva1KP4JNX8OXSS4tL2kUn6SC/Uh4D3SRS6TX0asSRUK6/4QIfqEOnLK9jHWrBJLK+fWBJGD/XqfACW0klpgCgOD2yvr535RBU9AFReN1eFRVPrKSj66HJb8d20/fojEw0FeJW1NHeVhRLqCGsatjxBrRVIC6K0VoxqUAp69gnv4920PaWruG1/lXSu5Dorm3bXukrzGRp4cEbziYkYfK2s3bFXKM230/YEI0Ttd6BBuvIUZvEMvCm+Jws6fymkQH4IOBHb14W4icZ1olBKZMwf/4zcL/H7LyZYewSqgaOms1YwB53Aa3V2cHeICslmNSCAQv1C/4gtzHPZx0W0Wq90XfyWrwD+1gixfJtjZIYpz+v1Su5wgg9LCJbY/DqLZ4GI1crOg/IbBmEwi5OriHXSVltgstkfxlm2fsOeCLTB0+Mglm7JIzMo7ioNfeVmerk1mNBp5sisnuyNINSh4/pRxkQoV2npuJbpxOrzfno3uBcBa4L3ODq+2taRgpGb0RO1g5Y8Q31ypQ+mEsEiRL4vo6xFzt5XYtm5m7eHtY40kdh7bwaSCVFs1wBrhKR/sfEb0SPuVFGphoJ+qMPB73FFPlD4EEjnHqEd19T+F9F7/TjavE5auTBiivC+VchjJHR1Yvs7sj4HKd77qpe0CP3mgEDTxMUdj1KlkT3xja8zjXYLbSux689bOe5Aq4AijC30a0xWygO4li7rL0D1idPm46sPotTwWd6z5WA39plLqw2Ek73DKHPd8j9YGjZZRPXh8jgltztmB95XLuWnsOi7/ami9bQ+Wh0ev67Svo10fx7/AKv1A7U93vUQLhtTwwuWhzD8vlqqxr3gug7DcHEsrK8iLo6L8pT1FWdlW+zLG4T5/f1b7wcMGDBgwIABAwYMGDBgwIABAwYMGDBgwIABAwYMGDBgwIABAwYMGDBgwD/j/3gEKNkDfSzDAAAAAElFTkSuQmCC;" vertex="1" parent="1">
          <mxGeometry x="216" y="755" width="99.38" height="52.25" as="geometry" />
        </mxCell>
        <mxCell id="Xk3XCA5ldvkOTz2yZbey-13" value="" style="shape=image;verticalLabelPosition=bottom;labelBackgroundColor=default;verticalAlign=top;aspect=fixed;imageAspect=0;image=data:image/png,iVBORw0KGgoAAAANSUhEUgAAASwAAACoCAMAAABt9SM9AAABMlBMVEX///9tsz8AAABrsjxkrzDK4r1+u1f7+/tirixpsThqsjtmsDOLwWlnsDR4uE/V6Mnf7dev05v3//+znpJ1t0qq0ZSHwGTPv672+vORxHK+2634/PXm8d/s9ebD3rPM47+cyoHq+P8AABgAACKplYXD0N6drb0AAB2316SWx3qCvV2Pw2/b69JaqxijzYuo0I/k4+fa1MxubWZKSkx4fIbEtKyDh4tHUFjZzcCOlJpGRETu5dudnJ1bV1HT4vHPztCNiYStt7yzrKR0h5d/blkADzBmbHvHxblYWFp2aWS5xNBZcIZkZGNmbnQ7Mi9ITVNvWEIyTmZKMyAbJzOEdmsbNVJ1anKzt7pdQyYdAAC2ppJIY3YABjFbVEsWHiM2SVlYPB7O1dmZiXEzMjOkoZjazcu+UyHSAAAEgUlEQVR4nO3ci1PaSADH8WWJuEkIIcojAuHRqwpIKahQkJ5FTg+uPmpbWyxq7+i1//+/cLsEH+i0Ze/GC6O/z7QokHbW7+wuGBgI8dr81LweKQAAAAAAAAAAAAAAAAAAAAAAAAAAAAAA/DdJ27a9HsMss8Nz+XIhFvLpisL/uPyR4lo2mjBTSa+HNzNs01ryKUzRVVXz+303+TVVNRTGjEA2EfZ6nDMgH+It1MlGd/lVnWlBx+vBei2k/qTTNTbn9WC9FvjZpLqmIBZiTQ+xJCCWBMSSgFgSEEsCYklALAmIJQGxJCCWBMSSMBHLP6K53CuIdYMby6/pjOm+SIgrBl0B/n0koilMUd1miBXQVF3xRZYSJcdJkqSTCofNkVI45diE2E7KjBZ9mmL4ESuiLaVt4phWzMfGxmfgL69FCulwkoSjgWePPpZjl6wgT2Jo39vXxSll5sumU3jJJ/ajTreKmV4P1muBKUrh0XAMz7MkIJYExJKAWBIQSwJiSUAsCYglAbEkIJYExJKAWBIi+rS1VJzPcqIBhek/fp+kXzMU5iukH/1HnEfTKSecyBZVxhTdMFRVu6KqqmEoPGUkaGUcx4w++vNZIYWpxWgm5Thhcy4fLReWgjHXWqH83EpkSvyuUiIbYgreUyo2eM3QGdMCa9l8Ip0RL1VwJdPMzKXz0UIwpDNl9H5mbPDXj4Z+ja86/eqVCv6NrotleXUAYuGpgwTEkoBYEhBLAmJJQCwJiCUBsSQglgTEkoBYEhBLAmJJCIj3105RSjPYs4zXg/Wck86GFGao30smPq5AYVrMMvHpDiPJ0vPCUkDTmTiFZYiTy6r4oiuMqZFYoZB49B9ScIedKs0l8nnLipbLZcuy8om0GUYmAAAAALh3Fa8HMMuq6xubueurcbp9+4jaxkavftVw4m1GtRcLjY2NN80FQhpbK/c5zJnQoi9e/nqzz6s7hyzSZpteNmzQ3MRdC3G606G/EbJL9+51oLOgQZf5Zfz3bq9JWr1Xh9VerrZZ6+3wWdPb+eO1OGRxlf+aSPdJ5+Cw0jqib7a76wev3X89ipUjx2/5Af3R//SgJd/RwwoZ0M0OXWnR95tdmntKmyc0FxeXo5W1+ISvst0P5GP/ZG+e3zbf7n8dz6+OiDXs8pk1WCWn+57+JP+Lzie6PfiFkOOzFp8bfJk9PeeLc3n3jJBP17FO35La+pY7karti/Esqokb6Ocmv//P/u7ECn2I5sUSWxGx/tpv8Y1JxNrjsYbHZyQ5nlmrYrWu8ClUExMu16I71XGsL+ckPkrUor3eAX3oW3z8/csLPrPo4Qldvow1mllxunkxjkW3jugZr9I8orkGPeyKe0Sswd98/bmxvjzhF6cfPP1R7p/9td7ke9Z5tT4krXpO/O3yrZ4/VejWh26sb/V2c8i/dprV+gKp1ee79UpbPJVotfk+L24jpM0fEUij/tDX4Qjfnm/71q+cPPhN6F8Z3F1A1aPPvaEHQwEAAAAAAAAAAAAAAAAAAAAAAAAAAAAAAAAAAACQ8w9T23hmtf68BgAAAABJRU5ErkJggg==;clipPath=inset(20.24% 33.33% 20.24% 33.33%);" vertex="1" parent="1">
          <mxGeometry x="188.00000000000006" y="816" width="90.14" height="90.14" as="geometry" />
        </mxCell>
        <mxCell id="Xk3XCA5ldvkOTz2yZbey-12" value="" style="shape=image;verticalLabelPosition=bottom;labelBackgroundColor=default;verticalAlign=top;aspect=fixed;imageAspect=0;image=data:image/png,iVBORw0KGgoAAAANSUhEUgAAASwAAACoCAMAAABt9SM9AAABYlBMVEX///9ssz4AAABnsTZlsC+SxXJqsjueyoRmsDSZyYBpsjqn0JBhriv+//33+/X7/fng4OB7VyrM3/SNdFVHUmHX4uix1Z3u6ONyYFJKJQBTSzjM3uNxtUXp8+Pl8d7I4bqKwWpdrSPU58nb7NJ5uVC62qiEvmHu9urO5MFfX2D///CgoKAAABj/+vPh9P+2w8qitr2pjnCmvdXD37O01qFRpwB9u1mWjYSVnKQPAADn4NiDfHiltcM+HwDh1soTExMkNUcAECzDtqRJbY6NgG0JHC60qaVbWlpyVS9zhZW+vb9BAACnrrZDQD/s8veom5DQxL1TXGFbTUmpp5kxJht1ThlEGACJbkw8SVkVIzRkd4sVHyByka5KPB/YvqMAM2S+rZZEWXEAEECSorouHAEtN0YAACLi07whDgCUqL04GQB8aFtqQQANCACaj3tYbYN2d3tmeogXIBkAI1cALEdjYFkoSgloAAAHMElEQVR4nO2c+XfTRhCA5ZGsyPL6KOA4JPJtbINw0yZgSKAk0JA0gThXuQmlpQ1QaKHX/99ZWb5iybYcXmRn5/sh0bO0+9bfm51drVaWJIIgCIIgCIIgCIIgCIIgCIIgCOIY5Xw4uJiO+d2M8SdauJTNMU1mOSNcSUf8bs74Us6EswZT9ICFqjGtGLyWj/rdrPEjlqqUGNN0NdCJKiuMhfNlv1s3RkQLi0FDY3rAGU3Ri1OVFOUwqZzKhwI5RVZdTDUjjOWK04WUyCEWyZQ0pmj9RTXRNcYCoYLfbfaFcmEak9SAiOqJMI0Fspm0cDkf5wduSaq/L13Jhfxu/GmjjGKqgTzld+NPG5LlAZLlAZLlAZLlAZLlAZLlAZLlAZLlAZLlAZLlAZLlgX6yVIRkdeAuS2a6YQQUxdUXyWqZyE0VorFINLVYZC66SJYNC7ZX9tKGTLIsnGWxUOcqaLqokSyOoyx2rfuiWNAptkiWZaF0/KoyyeI4ydLSzbOt5/aLjGQ5ytLC9rnFUilkPyKMFnuHRJKF5FKNU4Xr+VgtaF93qfdC8WQxWe8CJSj2qXAuHyvpdmilsR92X6krwsnKBrsxAnozvYc01ZA1O8yiuqqXui/NXnOtVRCKaqt3pXOqqjQfpGLSUi751ahxxVBb+V0Ky3qpuQckVtO1aZ/aNLZ0RBZGE6u0jymypFA3Ux05S5Iq1zPNw6iKOWuq++JFX1rsIzm5GzWg6q2TkVpLVgqnDnr3pSzsWOMZps88Cym2ZDnMszSShZPNtoRgU1bM6J3BkyxENVpDYCuyKg73hiTLspBtnp22l7WiTovxJMuChbtfE4hmnZZoSJZtq2tWEJlyvIpkNW0F20Ni3nlVmWS1kNl0oRyRoulK1u01ApLV4UIxarWirLhuZiZZneAdTr8n0uLJ6vuAvj/iyQqcQJZwSza1kd6vsBBvySbk/Gh+GFje78afNtOjb9Biwr0aljmBLOHeCkuNLEuV/W77qRMdeTiUg4NrP2uURh0OxRsMJSnsfJc8hKz04MrPGgWHNdBh0Gsi/jSG+w7bvsjCvfTLmR6tH7LU4KrPHumRZOlFv9vtD44L7IMQcSzkjJLi9aKoP7NieJ9qMeGWZ5pkPIeWqoo4b2jguM29H4pwG2japHPeXOk1UTMWJ+xt7SEn4J1Om6in22lFuCcV3XjpiGJ3Qk546BFRZUJ3Qouhl2pYZnBlZ51ycbj5g3g7SZ1IDzWRV4KiJ6wG6b47GxpoQeEe6bgw+LZHD4j8q5vdVNxetLeRDXLVptK3J8o16oOdVHLutjSDXHWTD7jNIFiWXB2n7LLd9vh2b4JTzjq9dSHeNr8hCfYMirLIq30DqBybzGtZIR8SDkk60JG4dJalW5x+xMKtH/PWipXB1wtOwbCCS5dDNGMYgiDTVcUQbuPoiGSKgSkKK4IgCIIgiFGpxsehinEjeePy5cs3ez5egnn3Msu3sMztARVXv4NBl0wadwBgBVZ7Pj9/N+Fa5p5V5vtBVa/dxyrWN07SujHjB9jEINjyVGaJh0yyT+S1uQIwUrPGkwd2X4mZD+s3tjfrGDdmfGdPWjfr0q6Z2N3fm5N4X93eTJq2UhRwzi59sL/xkP+/c2t7Y04ysUyEF9wyEzsXeBXLBwDm7Xsmj1J+YsI5D2B93STc/xF7192I9Aj24Wr9MQp5Atv4ESSk6pLV8Z7aZS7CMyusIjNwYR+eS9IOwAt4KQF8LcUO8foZ2MOImoW5V7z8T6/hZ8xz8ItvX/JLUZ3FL8p7FcD7Rk7+Cp4l4ijkHIpcreP5N9IafLLM2GWWfwX4bZ7nLuzCM5BYBj4axBuyZi1ZR1gFyuJRWK8nl47q0musf/JZPwSMjiTcrfMQeYmyeMdsyMKjb+FNhEeL9LYlS6ruvAM89wQ+m+YMLOzw6EI6ZHExtiw8+oAXz8LE90IL7EWJJKxG+NFzlMX7WEPWN1zWzervV+tdsrAHfsAe+xFWVmDlj4U/7aDhsiINWQtSp6w78CmJwTnx8Ilj7DuYa0TWE/zavbKsPIT9yJZV5SGShKP6eXsutmOL4LKwJ/fKki5ePeg3b5sUHm/G4zcwoWPO2osf8K/bI2sTD54mcEJmy7oCZjz+AVYxZ72Yj299xtwNm/Hd91jmr/gaHJe1EOei/z7y8Ut+KR7x8Qr1YDfkQx/2p4+WrAfWaGjLqmJGhxtNWTGrCJ9xrvEDjKpdsIryyereYVMWZro5HqvwDwbjO0yGk08kbppbMd6t/q3vWvOhZNzqZnH7yPoT2zLrr1pZJ7JrmnPW0fK6VURKrlsfLJvz7YLWkYRzrjlLnPsNweTBZbmf5L4OT3Cr95bPtM4OjQTvwi7sbSzB6qh172wAzI1aeBxJ3tp0l7X8Hyaj3pWJYVm3prDEcNAeLoIgCIIgCIIgCIIgCIIgCIIgCIIgCIIgCIIgCEIU/gdNH6/23f6+bAAAAABJRU5ErkJggg==;clipPath=inset(10.71% 31% 20.24% 30%);" vertex="1" parent="1">
          <mxGeometry x="284" y="818.01" width="76.64" height="75.99" as="geometry" />
        </mxCell>
        <mxCell id="Xk3XCA5ldvkOTz2yZbey-10" value="" style="shape=image;verticalLabelPosition=bottom;labelBackgroundColor=default;verticalAlign=top;aspect=fixed;imageAspect=0;image=https://blog.kakaocdn.net/dn/cq2C2H/btsHtNY6KYD/MmxnjIKEyUq2Wx8L0GFT80/img.png;" vertex="1" parent="1">
          <mxGeometry x="235.66999999999996" y="903" width="94.34" height="43.16" as="geometry" />
        </mxCell>
        <mxCell id="Xk3XCA5ldvkOTz2yZbey-44" value="" style="rounded=1;whiteSpace=wrap;html=1;arcSize=22;" vertex="1" parent="1">
          <mxGeometry x="-349" y="1025" width="355" height="289" as="geometry" />
        </mxCell>
        <mxCell id="Xk3XCA5ldvkOTz2yZbey-45" value="&lt;font style=&quot;font-size: 18px;&quot;&gt;&lt;b&gt;외부 API&lt;/b&gt;&lt;/font&gt;" style="rounded=1;whiteSpace=wrap;html=1;" vertex="1" parent="1">
          <mxGeometry x="-243" y="992" width="120" height="60" as="geometry" />
        </mxCell>
        <mxCell id="Xk3XCA5ldvkOTz2yZbey-46" value="" style="shape=image;verticalLabelPosition=bottom;labelBackgroundColor=default;verticalAlign=top;aspect=fixed;imageAspect=0;image=data:image/png,iVBORw0KGgoAAAANSUhEUgAAAQMAAADCCAMAAAB6zFdcAAAApVBMVEUAvUX8/f3//v8AvEEBvkYAuz0Auzqy7MeZ26j7/f2568287M+h5rny+vUAujcAvEQtxF3k9+tM0Hpk0oX2/Pns+vJU1IFq1pOi3q8TwE0iyGE3xF7a8+N12pgAxFPi9+rL8tqX4a/T8t5lz4ExymggwlWp5LuP4q1Fy2+D2p46zG9v1Y1VzHe55sTN7NSv68UAtymV2qR31I+G36VTzXdw0oxDyWn31a+LAAAJMUlEQVR4nO2ce3+aPBTHJSfBITcV0GJBgRoRte3W9fH9v7TnJHhf2/9WXTzf3VDSfciPc0sI6XQIgiAIgiAIgiAIgiAIgiAIgiAIgiAIgiAIgiAIgiAIgiAIs+DXvoAbgGsRQgCBABy+uTNA2NN5tM7X0XDCA7hD04BANm6WDRJkllWLERfXvqRvhXfCYPrqxxY74MTVyIZrX9h3ArKOsePWCfixGMJ9qKC8HpbFuQA7Gfxc3oMIHMO/iLIPFNC24EkwPTTq/tnR4GMJUITYM90SdAkg5rPPJEDiMg2vfZl/HZhWX0hgWc7a+BzJ7YXzpQZs8Gi4N2A8/DQY7EXwTDeEtLuXYFccnR21cXFitiGIzT4tsuxBgcGB+c/q6OUgQhlc+zL/Krw59PT1p23bwTKxWLIJbPvnr8OZxGhnCOXRFbqBypUiZyx5QuO3fxzOOCuTnQG2s1MNkJC7qIE41cBySvvaF/oXgc2ho6iBrhrhcXZhB5blmhwQIDrVoP2ON7MLDVhmtB3klxqEOI72LnyBZSbXy39okEo1kn68sIOZyQOnSw3C6ULsR5OnGkzvxQ5slRWSfBcWznzB5DmEy5iIGrC5+MMOMqPzwrt1ocGAVal2/tPcuDBag8fqWCPZrQZxeWEHzFkLk50h9Y7jhQAAUAM2iGw8Ck40MHvgCG/xftzYm04mk+kAx43uEo/kUZ3C5BJJOUOx72qc+L6fOOq++3iYxAcNhkaPG9HtG/9sEmV3ZJ3MoczMNgM0hElxjP8fwZyR0dFAVYT22v9SBNZNTU4KbVXM3S8lGETGP2lCb1hZXxgCW6TXvsDvIPA+14BlS7OjwQ5uf/G8sbTRYcx3htPR46UG1bRzF+u1OJef5EfmNKbXBns4fJIfWQF3YQWqkyCfP9Zg1WpgvgxcPXn9aA3Ccar5uhf4TfAPDIElJk+l/glM/lySxH7fx/1X6J4G9eVSDFYZv/jiiF6VFPILQ2Bxc+0L+0baxdkiutCg6N+PGeyjvn1WKLEkN3z26AO4GJ4ZQvdeKsTO4TUFLlJ+Mn5kyRyThRou3UluwJ6CfPLmxwUZFvMgb5b8DqZP9DSSqoXTqBezHi/3+ZENeJSwbCENfta6Q2sAtlAaOHGPb/dPnVhuR5nWAM9e+yr/OhBMylwIkOunPofdRDsrUkiXT+gL9rzMTVdBzJ/9OE7WggNAB9LWENgaSwP8AmQvdmJ/DMaqAOjsnn5t57f2ezV+HCU6IB7W3gxd9X5LEoFubRIYB7ngj1IAz19mNbd3+RGHDQuGAXFzuO9gL93Z88oGvsXWu0ZmwEG810X3TYKdclvf4bZvMPH1w/djTyGQAaTvddV96tsm2QJsnjOHsWoInV239qVSULNse/puI8cWXNY+eoT7y6AhBIexo56rduW5Ah31hluvOeloe4JztcKfMdeoRbvp0ovVu3shiDYc8oP9y/TC6cHGBNFgubDuGxMMFCF2a4LZMB2t08uXGPl5w478rRYtipUw721HVQ+sCsZmzZZ3Tuxgx8495PsrZs9a8o5xArTASofGYqLHRq3rn7dIsXJkftHIK1zdNwFiWVZuI0Hgr0sNBBeQbh6K3ltqG/2UAfiyj44ePS/mwZm1C752vakujrAsONiJcbQvLEAouzFzEm96MiwQUYHjp0EujCuSL9nfWl0DMRw6ta+A429XLdDKlqetzLSDA1gyN4MeDgs6EoOAxHTJm8wdnnuH6SJ0QpvjsGDZuPVm/bpYS70vyrUv6tsJeShLzJQJukWGA4l7mU09A6sktAMVF9AODA+EXwDQX/e899T0XPA5OidAescKHLnLSHDCnXefIIg7INzlun3Oa+fEIITjaQhD/By2X4cnyRH2x+E/nTF5v50LTfuynSaR/XT/N3YyxdP4R5NCeyT3m+Zhq7bZ4eCfBObdXiPUv+5CLcSHR8+t0zDN3YVafwhNrzvN3Z7C/c9e6YNu/d7uKSlr1/2tWg27ve7wn51ShGHMko3owIoNIqXFG2POFqDRj1ahXzFXeLutcB6C0e6o0h2GPo4f4jTsiAVjvv5pHE5qlxFqy81WlMPBzQJDHAgW2OlWg1AW2MXShnmBne/YTcxG3GNV3SBLe8T88u0N9XlW63SVBmoxAiwzrQEEq3W+lqjFKppP1/lKvR8cjPL1/LbH2VoDtkhFqwEMmR8zC0Lxw2ETkD2WpKnHetJWG6mKEUtGgQgK9rK3A7UvjnhgzPIje/WSxLGfbSDtxlUWx4MSA+iz78R+fdPBAjVw8C7+3mkgeszNB+rejmasDp4SlgNqUIxWq9U81RrYEFTsRY+gUIOZ4+T9gmWogZjMZqWXoGC8h0Nsr2J+E5SWn3t+ftPegBrE42cWb+ZKA5gw68dP7BIaAvq6qNlgK9JdPMi2qIFfj6LSch72vuBlbNDE1thBDcRESlmywSNqUM0DNBc37bJqm954QFAaRNuMVZHSIPCwR09dvLe2WPtOXbFXqewgeSleXry+2MdEt7/3hXLMHJ/1JkqDflNl2YAlSgOPq+0TqqXaaavX9K/dzS/RGgT/JaxSGvAB9ggDhOUC8MxKmPMmlAbuPFWgBnHl4vmJDnLaDvgME8nbFDWwSyvuLqqDBgI1eA82XXS17k2v89caCChj9VZ/0DjWrKqqGRsMwa7VxrFzUDsAuBPgiIoHY+nFGCn0zyoNOjm2elQacJcVAZStBtU2wM9uX07t7YOT3PQidxUTUQNeKA2gYtXj4+O2j5lCwBRv8C+hd0HwZ9lsNqhB5wWJt/pdGYLWIE0T65dQGgQui+uF32rAqjKznBKKQR29suqmZyCxRlJ7YaoOD6K1z9odHjyWvQP2abYBrUHLgo/UAiyYO22nWg1gFaUwVblxgm4RZ76v7UC5yEKt8FVb7a2v3c0vCeV4PFfl7jSP5Gg8bo1c5mMsmyb5SD9JXI5bhnwyHk/Cjo3t9Auu6ShfYuzD0nCKJ1C8qB5NxlGa9tjDdFwvg7ATTKM6lze+wjvclbJY0oawf3DS1rdwrHY1sG98UgfD2f8idI0cogaLfZtQ2DeeGv8OqYt+c+2LuDJ8XUb3rkHnHpb1EwRBEARBEARBEARBEARBEARBEARBEARBEARBEARBEARBEARBEIT5/A9YxZx2VQHD2gAAAABJRU5ErkJggg==;clipPath=inset(19.59% 24.9% 22.16% 24.13%);" vertex="1" parent="1">
          <mxGeometry x="-304" y="1084.25" width="105.47" height="90.28871212121211" as="geometry" />
        </mxCell>
        <mxCell id="Xk3XCA5ldvkOTz2yZbey-47" value="" style="shape=image;verticalLabelPosition=bottom;labelBackgroundColor=default;verticalAlign=top;aspect=fixed;imageAspect=0;image=https://file.sportsseoul.com/news/legacy/wyzmob/timg/l/20140408/l_2014040801000406000023531.jpg;" vertex="1" parent="1">
          <mxGeometry x="-163" y="1084.25" width="135.75" height="60" as="geometry" />
        </mxCell>
        <mxCell id="Xk3XCA5ldvkOTz2yZbey-48" value="&lt;font style=&quot;font-size: 14px;&quot;&gt;다음 우편번호 서비스 API&lt;/font&gt;" style="text;html=1;align=center;verticalAlign=middle;whiteSpace=wrap;rounded=0;" vertex="1" parent="1">
          <mxGeometry x="-195" y="1141" width="217" height="30" as="geometry" />
        </mxCell>
        <mxCell id="Xk3XCA5ldvkOTz2yZbey-49" style="edgeStyle=orthogonalEdgeStyle;rounded=0;orthogonalLoop=1;jettySize=auto;html=1;exitX=0.5;exitY=1;exitDx=0;exitDy=0;" edge="1" parent="1" source="Xk3XCA5ldvkOTz2yZbey-48" target="Xk3XCA5ldvkOTz2yZbey-48">
          <mxGeometry relative="1" as="geometry" />
        </mxCell>
        <mxCell id="Xk3XCA5ldvkOTz2yZbey-50" value="" style="endArrow=classic;html=1;rounded=0;entryX=0.755;entryY=0;entryDx=0;entryDy=0;entryPerimeter=0;" edge="1" parent="1" target="Xk3XCA5ldvkOTz2yZbey-44">
          <mxGeometry width="50" height="50" relative="1" as="geometry">
            <mxPoint x="-84" y="838" as="sourcePoint" />
            <mxPoint x="-81" y="1019" as="targetPoint" />
          </mxGeometry>
        </mxCell>
        <mxCell id="Xk3XCA5ldvkOTz2yZbey-51" value="&lt;span style=&quot;font-size: 14px;&quot;&gt;산출물 업로드&lt;/span&gt;" style="text;html=1;align=center;verticalAlign=middle;whiteSpace=wrap;rounded=0;" vertex="1" parent="1">
          <mxGeometry x="468.00000000000006" y="1178.29" width="207" height="30" as="geometry" />
        </mxCell>
        <mxCell id="Xk3XCA5ldvkOTz2yZbey-52" value="" style="shape=image;verticalLabelPosition=bottom;labelBackgroundColor=default;verticalAlign=top;aspect=fixed;imageAspect=0;image=https://d33wubrfki0l68.cloudfront.net/1c230fe2dc86226cb43ddf71387b8e55a89630fa/35aec/images/aws/00-icons/codedeploy.png;" vertex="1" parent="1">
          <mxGeometry x="510" y="852" width="106.41" height="101.09" as="geometry" />
        </mxCell>
        <mxCell id="Xk3XCA5ldvkOTz2yZbey-54" value="" style="endArrow=classic;startArrow=classic;html=1;rounded=0;entryX=0.011;entryY=0.303;entryDx=0;entryDy=0;entryPerimeter=0;" edge="1" parent="1">
          <mxGeometry width="50" height="50" relative="1" as="geometry">
            <mxPoint x="-236.12999999999965" y="837.8201862914364" as="sourcePoint" />
            <mxPoint x="165.39400000000023" y="836.4420000000002" as="targetPoint" />
          </mxGeometry>
        </mxCell>
        <mxCell id="Xk3XCA5ldvkOTz2yZbey-55" value="" style="shape=image;verticalLabelPosition=bottom;labelBackgroundColor=default;verticalAlign=top;aspect=fixed;imageAspect=0;image=https://studio-jt.co.kr/wp-content/uploads/2020/03/thumbnail_05-1200x900.png;" vertex="1" parent="1">
          <mxGeometry x="-234" y="1184.25" width="142" height="106.5" as="geometry" />
        </mxCell>
      </root>
    </mxGraphModel>
  </diagram>
</mxfile>
